<?xml version="1.0" encoding="utf-8"?>
<!-- Generator: Adobe Illustrator 18.0.0, SVG Export Plug-In . SVG Version: 6.00 Build 0)  -->
<!DOCTYPE svg PUBLIC "-//W3C//DTD SVG 1.1 Tiny//EN" "http://www.w3.org/Graphics/SVG/1.1/DTD/svg11-tiny.dtd">
<svg version="1.1" baseProfile="tiny" id="Layer_1" xmlns="http://www.w3.org/2000/svg" xmlns:xlink="http://www.w3.org/1999/xlink"
	 x="0px" y="0px" viewBox="0 0 800 800" xml:space="preserve">
<g>
	<g>
		<path d="M385.2,740c-0.4,1.2-0.8,1.8-1.3,1.8s-0.8-0.7-0.8-2c-0.5-9.6-2-18-4.5-25.3c-2-5.8-5.1-11.8-9.3-17.9l4-7.8
			c0.5-1.1,0.9-1.6,1.2-1.6c0.3,0,0.8,0.5,1.5,1.6c3.4,4.9,6.1,11,8,18.5c1.8,6.9,2.8,13.6,2.8,20.1
			C386.9,732,386.3,736.3,385.2,740z"/>
		<path d="M439.9,691.3c0,3.8-0.5,7.1-1.5,9.7c-1.5,3.8-3.8,5.7-7,5.7c-3.6,0-6.4-1.2-8.6-3.7c-2.1,3.4-4.9,5.1-8.3,5.1
			c1.9,5.6,2.8,11.8,2.8,18.4c0,5.5-0.8,10.1-2.4,13.9c-0.3,0.7-0.6,1-1,1c-0.4,0-0.5-0.3-0.6-1c-0.5-16.5-4.8-30.5-13.1-42
			c0.7-2.9,1.8-6.3,3.1-10.2c0.5-0.7,0.9-0.8,1.5-0.2c1.1,1.3,3.1,3.6,5.9,7c1.1,1.3,2.7,1.9,4.9,1.9c3.4,0,6.2-2.2,8.2-6.7
			c1.2-2.6,2.1-3.9,2.6-3.9c1,0,1.3,1.4,0.9,4.1c-0.2,1.5,0.5,2.7,2.2,3.6c1.4,0.7,2.8,1.1,4.5,1.1c1.1,0,2.2-1.2,3.1-3.6
			c0.9-2.4,1.5-3.6,1.5-3.6C439.5,687.9,439.9,689,439.9,691.3z"/>
		<path d="M480.9,691.3c0,3.8-0.5,7.1-1.5,9.7c-1.5,3.8-3.8,5.7-7,5.7c-3.6,0-6.4-1.2-8.6-3.7c-2.1,3.4-4.9,5.1-8.3,5.1
			c1.9,5.6,2.8,11.8,2.8,18.4c0,5.5-0.8,10.1-2.4,13.9c-0.3,0.7-0.6,1-1,1c-0.4,0-0.5-0.3-0.6-1c-0.5-16.5-4.8-30.5-13.1-42
			c0.7-2.9,1.8-6.3,3.1-10.2c0.5-0.7,0.9-0.8,1.5-0.2c1.1,1.3,3.1,3.6,5.9,7c1.1,1.3,2.7,1.9,4.9,1.9c3.4,0,6.2-2.2,8.2-6.7
			c1.2-2.6,2.1-3.9,2.6-3.9c1,0,1.3,1.4,0.9,4.1c-0.2,1.5,0.5,2.7,2.2,3.6c1.4,0.7,2.8,1.1,4.5,1.1c1.1,0,2.2-1.2,3.1-3.6
			c0.9-2.4,1.5-3.6,1.5-3.6C480.4,687.9,480.9,689,480.9,691.3z"/>
		<path d="M482.1,732.1c4.5-5.6,8.5-13.1,11.8-22.5c0.7-2.1,2.4-7.7,5-16.9c0.9-3,1.6-4.6,2.1-4.6c0.6,0,1.3,1.5,2.1,4.6
			c4.3,16.1,10.3,28.8,18.1,38c-0.4,1.3-1.3,4.1-2.8,8.3c-0.4,1-0.6,1.6-0.9,1.6c-0.3,0-0.8-0.4-1.4-1.3c-7.6-9.8-12.5-20.8-15-33
			c-0.2-0.8-0.3-1.2-0.5-1.2c-0.2,0-0.4,0.5-0.6,1.4c-3.7,15.2-9,26.7-15.9,34.3c-0.5,0.6-1,0.9-1.2,0.9
			C482.4,741.7,482.2,738.5,482.1,732.1z"/>
	</g>
	<path d="M767.9,32.1H32.1v735.8h735.8V32.1z M755.6,755.6H44.4V44.4h711.1V755.6z"/>
	<path d="M800,0H0v800h800V0z M780.2,780.2H19.8V19.8h760.5V780.2z"/>
	<path d="M610.4,193.1c0,0-18.8,24.7,4.4,53.8c20.7,26.2,63.7,57.8,76.5,66.2c24.7,17.3-80.5,78-115.6,78
		c-32.1,0-10.9-58.8-14.8-58.8c-6.9,0-26.7,82-6.4,95.3c37,24.7,163-61.2,165.9-115.6c1.5-25.7-43-45.9-62.7-65.7l-0.5-12.8
		C627.2,216.8,610.4,193.1,610.4,193.1"/>
	<path d="M624.2,133.3c0,0-17.8,16.8-25.2,30.6c17.8,5.9,27.7,25.7,27.7,25.7s20.2-19.3,20.2-29.1
		C646.4,147.7,624.2,133.3,624.2,133.3"/>
	<path d="M669.1,128.4c0,0-16.3,16.8-23.7,30.6c17.8,5.9,26.2,25.7,26.2,25.7s20.2-19.3,20.2-29.1
		C691.9,142.7,669.1,128.4,669.1,128.4"/>
	<path d="M642.5,86.9c0,0-8.9,0-25.2,34.1c17.8,5.9,29.6,24.2,29.6,24.2s18.3-20.7,18.3-31.1C664.7,101.7,642.5,86.9,642.5,86.9"/>
	<path d="M430.1,191.6c0,0-17.8,16.8-25.2,30.6c17.8,5.9,27.7,25.7,27.7,25.7s20.2-19.3,20.2-29.1
		C452.8,205.9,430.1,191.6,430.1,191.6"/>
	<path d="M475.6,186.7c0,0-16.3,16.8-23.7,30.6C469.6,223.2,478,243,478,243s20.2-19.3,20.2-29.1
		C498.3,201.5,475.6,186.7,475.6,186.7"/>
	<path d="M448.4,145.7c0,0-8.9,0-25.2,34.1c17.8,5.9,29.6,24.2,29.6,24.2s18.3-20.7,18.3-31.1C471.1,160,448.4,145.7,448.4,145.7"/>
	<path d="M503.7,124.4c0,0-13.3,18.8-25.2,30.6c17.8,5.9,29.6,27.7,29.6,27.7s20.2-20.7,20.2-31.1
		C528.4,138.8,503.7,124.4,503.7,124.4"/>
	<path d="M668.1,681.5c0,0-16.3,16.8-23.7,30.6c17.8,5.9,27.7,25.7,27.7,25.7s18.3-19.3,18.3-29.1
		C690.9,695.8,668.1,681.5,668.1,681.5"/>
	<path d="M331.4,686.9c0,0-16.3,16.8-23.7,30.6c17.8,5.9,27.7,25.7,27.7,25.7s18.3-19.3,18.3-29.1
		C354.1,701.2,331.4,686.9,331.4,686.9"/>
	<path d="M389.1,546.7c0,0-15.8,16.3-23.2,30.1c17.8,5.9,28.1,20.2,28.1,20.2s16.8-17.3,16.8-27.2
		C410.9,557.5,389.1,546.7,389.1,546.7"/>
	<path d="M344.2,551.1c0,0-14.8,15.3-21.7,28.1c16.8,5.4,26.7,19.3,26.7,19.3s16.3-13.3,16.3-22.7
		C365.4,564.4,344.2,551.1,344.2,551.1"/>
	<path d="M362,515.6c0,0-14.3,14.3-20.7,26.7c15.8,5.4,24.2,19.8,24.2,19.8s15.8-16.8,15.8-25.7C381.7,524.9,362,515.6,362,515.6"/>
	<path d="M284.9,688.9c0,0-16.3,16.8-23.7,30.6c17.8,5.9,27.7,25.7,27.7,25.7s18.3-19.3,18.3-29.1
		C307.7,703.2,284.9,688.9,284.9,688.9"/>
	<path d="M155.6,108.1c0,0-16.3,16.8-23.7,30.6c17.8,5.9,27.7,25.7,27.7,25.7s18.3-19.3,18.3-29.1
		C177.8,122.5,155.6,108.1,155.6,108.1"/>
	<path d="M159,162c0,0-16.3,16.8-23.7,30.6c17.8,5.9,27.7,25.7,27.7,25.7s18.3-19.3,18.3-29.1C181.2,176.3,159,162,159,162"/>
	<path d="M571.9,192.6c0-8.9,7.9-18.3,7.9-32.1c0-39-16.3-12.8-16.3-103.2c-6.9,0-17.3,31.1-18.8,42
		c-9.4,74.6,26.2,172.8,27.7,267.2c0.5,13.3,16.3-23.2,16.8-50.4C590.1,283.5,571.9,208.4,571.9,192.6"/>
	<path d="M523.5,232.1c-26.2,52.8,4.4,99.8,4.4,110.1c0,16.3-25.7,22.7-28.6-4.4c-39.5,44.9-33.6,3-33.6,3c-74.6,54.3-63.2,1-63.2,1
		c-94.8,46.9-123,41.5-132.8,38.5c-8.9-3-6.4-17.3-6.4-17.3c123.5,0,131.9-65.2,131.9-91.4c0-36-78-50.9-113.6-86.9
		c-18.3-17.8,135.8-90.4,177.8-90.9c27.7-0.5,13.3,13.8,5.9,46.4c38.5-48.9,24.7-78.5-0.5-78.5c-4.4,0-201,43.5-201,132.8
		c0,46.9,113.1,81,113.1,93.8c0,13.8-62.7,35.1-89.4,35.1c-35.1,0-32.6-43.5-37-96.3c-5.4-68.1-14.3-158-23.2-160
		c-28.1,51.4,5.9,109.1,5.9,247.9c0,22.2,6.4,34.1,13.3,40.5c-0.5,52.3,15.3,67.7,35.1,67.7c46.4,0,98.3-35.1,98.3-35.1
		c22.2,41,59.3-2,59.3-2c24.2,27.7,50.4-7.9,50.4-7.9c32.6,43,66.7-31.6,46.4-77.5c-3-7.4,5.4-22.7,5.4-24.7
		C539.8,264.2,535.8,271.1,523.5,232.1"/>
	<path d="M499.8,426.7c-5.9,0-26.7,53.3-22.7,56.8C520,468.1,509.6,436,499.8,426.7 M514.6,553.6c-1-8.9-18.8-41-43.5-28.6
		C473.1,547.2,482,554.6,514.6,553.6 M642,512.6c-20.7,13.8-63.7,33.1-60.7-17.8c-4.4,0-34.6,8.9-59.3,14.3
		c12.8,37.5-7.9,75.1-12.3,75.6c-8.9,1-53.8,6.4-52.3-55.3c-4,0-16.3,3-25.7,3c-9.9,0-26.2-7.4-24.2-32.6
		c-35.1,11.9-87.9,28.6-122.5,28.6c-21.2,0-55.8,3-67.2-52.3c-4.4,21.7-47.9,75.6-102.7,75.6c-44,0-32.6-86.9-4.4-119.5
		c-55.3,153.1,98.3,39,98.3,7.9c0-24.2-2.5-43.5-16.8-89.9c-3-9.4,0-34.1,10.4-51.9C237,401,229.6,488.4,269.6,488.4
		c7.4,0,27.7,8.9,148.6-31.6c0,0-4,53.3,46.9,31.1c5.4-19.3,24.7-77.5,43-111.1c0,0,23.2,49.9,4.9,100.7c8.9-1.5,34.6-6.4,81.5-23.2
		c0,4.4-4,69.1,63.2,16.8c-4,27.2,18.8,16.3,28.6,9.9s-6.4-27.2-6.4-34.6c0-9.4,13.8-36.5,13.8-36.5
		C739.8,507.7,637,552.6,642,512.6"/>
	<path d="M267.2,132.3c0-35.6,107.7-79.5,116.5-79.5c19.3,0,4.4,46.9,4.4,46.9s-0.5-27.7-8.9-27.7
		C374.3,72.1,310.1,97.3,267.2,132.3"/>
	<path d="M586.7,695.3c-3.5-20.2-21.7-32.6-45.4-32.6C541.2,662.7,547.2,697.3,586.7,695.3 M573.3,556.5c-2-3-19.8,35.1-23.7,59.3
		C590.1,605.4,580.2,567.4,573.3,556.5 M597.5,646.4c12.8,50.4-3,79.5-32.6,79.5c-54.8,0-35.6-63.2-35.6-63.2s-27.2,4-39.5-15.3
		c0,0-49.4,33.6-55.8,1c0,0-47.4,40-55.8-8.9c0,0-51.9,40.5-83,19.3c-25.2-17.3-15.3-67.7-22.2-70.1c-30.1-10.4-52.3,30.1-52.3,32.6
		c0,9.4,59.8,10.4,59.8,35.1c0,53.8-109.1,90.4-148.1,90.4c-85.4,0-33.6-178.3-10.4-184.7c-56.3,137.8,10.9,142.7,13.8,142.7
		c50.9,0,112.6-29.6,112.6-32.1c0-9.9-42-3-42-25.2c0-66.7,49.4-98.8,68.6-98.8c11.9,0,20.2,14.3,20.2,14.3
		c-7.4,124,98.3,32.6,98.3,32.6c-9.9,61.2,59.3,6.9,59.3,6.9c4.9,45.4,53.3-2,53.3-2c-5.4,30.1,30.1,19.8,30.1,19.8
		c13.3-43.5,43.5-117,46.9-112.1c2.5,4,17.8,72.6,2,102.2l-2.5,4c49.9-4,104.2-15.8,119-28.1c3.5-3-1-14.3-1-22.7
		c0-12.8,13.3-28.6,17.8-28.6C739.3,648.9,643,636,597.5,646.4"/>
	<path d="M125.9,382.2c7.9,7.9,35.1,0,36-4c3-12.3-23.7-34.1-34.6-43C122,344.7,117,373.3,125.9,382.2 M141.7,305.2
		c13.8,11.4,38,29.1,38,48.9c0,11.4-4.4,67.2-57.8,67.2c-23.2,0-18.8-49.9-2-91.4c-24.7-19.3-34.6-21.2-40-40c-2-7.9-3-29.6,0-29.6
		c4.9,2,54.3,40,54.3,40c6.9-14.3,16.8-29.6,23.2-30.1C162.5,269.6,145.7,295.8,141.7,305.2"/>
</g>
</svg>
